Simulation
nRows=27
nColumns=15
endheader
time  TH_x TH_y TH_z SC_y  SC_z  SC_x  AC_y  AC_z  AC_x  GH_y  GH_z  GH_yy  EL_x  PS_y
2.4010000000000002  0.000000  0.000000  0.000000  -42.473717973875026  19.34214863015392  32.465746805714794  47.28878514133395  -7.0383029508060115  -8.563568241748099  9.649412372197611  10.356786760140377  12.242872351619294  11.284128218372649  120.000000
2.4490200000000004  0.000000  0.000000  0.000000  -40.38311361267014  18.376940512374592  30.142836267929553  47.10560670483427  -6.459014645107951  -8.819260831489984  14.347214356696625  7.029581372500188  11.837293760572312  11.586060574769853  120.000000
2.49704  0.000000  0.000000  0.000000  -38.07618490131457  17.211450904197026  27.848101111972117  46.94454053309316  -5.781918323911929  -9.114664133192267  21.634370253406672  4.299545739950051  8.955070293569257  12.129748257880044  120.000000
2.5450600000000003  0.000000  0.000000  0.000000  -35.6777494359113  15.866929333377557  25.60186568379529  46.78764726560806  -4.978484389390264  -9.462248613186128  39.05943455136835  2.289375371211867  -4.137534058044395  12.927871088139765  120.000000
2.5930800000000005  0.000000  0.000000  0.000000  -33.33915655430433  14.38681459128787  23.427645550633436  46.61968001017262  -4.037392714709492  -9.866488189199508  85.68533980481374  1.487232354723907  -46.68088349939585  13.917980505895336  120.000000
2.6411000000000002  0.000000  0.000000  0.000000  -31.217932900915155  12.83710790113484  21.353209040985867  46.42651590748508  -2.9715848793435518  -10.320877125699747  120.45432190560163  2.1209541787499893  -77.77035926688862  14.993357820629996  120.000000
2.6891200000000004  0.000000  0.000000  0.000000  -29.44864236891846  11.30141177465398  19.403734805147177  46.197502200334256  -1.8213013310342225  -10.806760214499295  126.42883698488593  3.1431550856632837  -80.58048893729952  16.041193556827704  120.000000
2.7371400000000006  0.000000  0.000000  0.000000  -28.11614347643332  9.871594169347286  17.591658591917454  45.938475078694466  -0.6465779020424135  -11.274425406368346  123.36975098827165  4.251173851382714  -74.92900086532832  16.967507384513315  120.000000
2.7851600000000003  0.000000  0.000000  0.000000  -27.239964258862766  8.634301672613836  15.91561294498103  45.67407814664454  0.4840099798580086  -11.63519958250937  118.06804125796168  5.4141572842236005  -67.60336128090869  17.705356112387072  120.000000
2.8331800000000005  0.000000  0.000000  0.000000  -26.768540475961924  7.657948161528495  14.370183696018492  45.44391215771761  1.500883288667996  -11.80854079901241  112.6004725542983  6.573937392903676  -60.629577530583965  18.2174475798311  120.000000
2.8812000000000006  0.000000  0.000000  0.000000  -26.595735646396673  6.96811891429619  12.945768106228977  45.27921988135925  2.364892050702171  -11.761864045826663  107.47974686223073  7.6726358722944585  -54.44143940982857  18.49751863467006  120.000000
2.9292200000000004  0.000000  0.000000  0.000000  -26.591996084177907  6.532243972313454  11.636426373425286  45.15560634184592  3.0850327958109798  -11.518571631897725  102.85636517428529  8.686504320322767  -49.089299580387625  18.56680621903387  120.000000
2.9772400000000006  0.000000  0.000000  0.000000  -26.645371109548073  6.290191209303163  10.44362400944189  45.02430918533074  3.6897322103840673  -11.147197748047237  98.76617729527929  9.62466274210424  -44.51073585853965  18.464840950647226  120.000000
3.0252600000000003  0.000000  0.000000  0.000000  -26.674086657542723  6.187885411490972  9.362768093268981  44.8601870577738  4.197548389048387  -10.720250987761847  95.14547942605274  10.502037909055394  -40.56436922475873  18.24161306139542  120.000000
3.0732800000000005  0.000000  0.000000  0.000000  -26.624043728849035  6.174172471801711  8.384026033577985  44.650565050354835  4.606379009466415  -10.286340039864431  91.88742267862173  11.326823870500847  -37.08509112907013  17.953386816018416  120.000000
3.1213000000000006  0.000000  0.000000  0.000000  -26.46802457734218  6.204349729352749  7.4949999146661455  44.39937124777968  4.898185214633619  -9.874813821027175  88.9074358520887  12.121507047143297  -33.948084564681665  17.65755762979882  120.000000
3.1693200000000004  0.000000  0.000000  0.000000  -26.198303258399957  6.247477487505169  6.680964689347941  44.11753731206694  5.061167684796678  -9.511106453150386  86.15340574016253  12.911315493389314  -31.075958493064864  17.39572002641602  120.000000
3.2173400000000005  0.000000  0.000000  0.000000  -25.831129966184225  6.285500339598286  5.929882168366579  43.80561748910225  5.102884071054375  -9.223040858834484  83.54380535102554  13.703010567833308  -28.378599428336557  17.16920867573552  120.000000
3.2653600000000003  0.000000  0.000000  0.000000  -25.396272609126417  6.310998728340383  5.2351364164082925  43.46331333269282  5.042967072350067  -9.032501600690104  80.95850513135179  14.491367236647978  -25.74279936331339  16.939564896985402  120.000000
3.3133800000000004  0.000000  0.000000  0.000000  -24.925666829285902  6.315743178411762  4.596055562613395  43.096308082923905  4.901959671055668  -8.944200530708253  78.25945214121427  15.27075746758933  -23.051054671612203  16.647891925319687  120.000000
3.3614000000000006  0.000000  0.000000  0.000000  -24.448205951446088  6.288421680911436  4.014799329884605  42.72152611173444  4.6995718599222105  -8.947219906390043  75.31094245348382  16.04857596335774  -20.200973559272164  16.23960545011751  120.000000
3.4094200000000003  0.000000  0.000000  0.000000  -23.986055769069605  6.216259010545406  3.4945322558027954  42.36302218285324  4.456570370463556  -9.024280919783562  72.00574245924443  16.853923103261163  -17.126956085579916  15.690503467473356  120.000000
3.4574400000000005  0.000000  0.000000  0.000000  -23.55712003698063  6.0873438815438305  3.040547116141844  42.04551939659007  4.1942302879886775  -9.158086045988405  68.28373478154612  17.738824967781277  -13.815283358777279  15.020262414370382  120.000000
3.5054600000000007  0.000000  0.000000  0.000000  -23.177201009244882  5.893910296085209  2.6617040370805807  41.79056840846003  3.932144608780395  -9.334324875432541  64.1445998956483  18.772241947430643  -10.310514734389916  14.285801389487583  120.000000
3.5534800000000004  0.000000  0.000000  0.000000  -22.861782805498326  5.637113670756032  2.370864074718574  41.61480847664554  3.68395775546625  -9.542769015944437  59.661088615565745  20.02957449631405  -6.722956156928577  13.561124022297392  120.000000
3.6015000000000006  0.000000  0.000000  0.000000  -22.62932457953951  5.328530002621241  2.1841424558843543  41.530769642696654  3.4558628079139173  -9.775345074818562  54.97216205894823  21.579410768346996  -3.2209034191698187  12.913846418994465  120.000000
3.6495200000000008  0.000000  0.000000  0.000000  -22.500777945126497  4.992319917774453  2.1216908013790676  41.548121417358345  3.2486059853570968  -10.02145147748607  50.25638452655539  23.468555420383655  -0.005678956831221298  12.387096034335245  120.000000
